<svg xmlns="http://www.w3.org/2000/svg" viewBox="0 0 192 192" fill="none">
  <rect width="192" height="192" rx="32" fill="#10b981"/>
  <path d="M96 40c-30.9 0-56 25.1-56 56s25.1 56 56 56 56-25.1 56-56-25.1-56-56-56zm0 100c-24.3 0-44-19.7-44-44s19.7-44 44-44 44 19.7 44 44-19.7 44-44 44z" fill="white"/>
  <path d="M96 64c-17.7 0-32 14.3-32 32s14.3 32 32 32 32-14.3 32-32-14.3-32-32-32zm0 52c-11 0-20-9-20-20s9-20 20-20 20 9 20 20-9 20-20 20z" fill="white"/>
  <circle cx="96" cy="96" r="12" fill="white"/>
  <path d="M96 52v-20M96 160v-20M52 96H32M160 96h-20" stroke="white" stroke-width="4" stroke-linecap="round"/>
</svg>
